<svg width="240" height="240" viewBox="0 0 240 240" fill="none" xmlns="http://www.w3.org/2000/svg">
<path fill-rule="evenodd" clip-rule="evenodd" d="M0 24.6801C0 13.6344 8.9543 4.68005 20 4.68005H133.67C144.715 4.68005 153.67 13.6344 153.67 24.6801V220C153.67 231.046 144.715 240 133.67 240H20C8.95428 240 0 231.046 0 220V24.6801ZM22.1065 35.762C22.1065 30.2391 26.5837 25.762 32.1065 25.762H121.563C127.085 25.762 131.563 30.2391 131.563 35.762V89.2638C131.563 94.7867 127.085 99.2638 121.563 99.2638H32.1065C26.5837 99.2638 22.1065 94.7867 22.1065 89.2638V35.762ZM68.5062 159.894C72.3813 153.369 81.8274 153.369 85.7024 159.894L91.4811 169.625C92.0779 170.63 92.4755 171.675 92.6939 172.726C96.7194 176.957 99.2113 182.815 99.2113 189.289C99.2113 202.191 89.3137 212.65 77.1044 212.65C64.8951 212.65 54.9975 202.191 54.9975 189.289C54.9975 182.815 57.4893 176.957 61.5147 172.726C61.7331 171.675 62.1307 170.63 62.7276 169.625L68.5062 159.894Z" fill="#F1F1F1"/>
<ellipse cx="190.551" cy="11" rx="10.2447" ry="11" fill="#F1F1F1"/>
<path fill-rule="evenodd" clip-rule="evenodd" d="M216.796 80.7687C227.897 80.7687 236.896 72.5378 236.896 62.3844C236.896 52.231 227.897 44 216.796 44C205.696 44 196.697 52.231 196.697 62.3844C196.697 72.5378 205.696 80.7687 216.796 80.7687ZM216.796 72.4959C222.901 72.4959 227.851 67.9688 227.851 62.3845C227.851 56.8001 222.901 52.2731 216.796 52.2731C210.691 52.2731 205.741 56.8001 205.741 62.3845C205.741 67.9688 210.691 72.4959 216.796 72.4959Z" fill="#F1F1F1"/>
<path fill-rule="evenodd" clip-rule="evenodd" d="M216.796 80.7687C227.897 80.7687 236.896 72.5378 236.896 62.3844C236.896 52.231 227.897 44 216.796 44C205.696 44 196.697 52.231 196.697 62.3844C196.697 72.5378 205.696 80.7687 216.796 80.7687ZM216.796 72.4959C222.901 72.4959 227.851 67.9688 227.851 62.3845C227.851 56.8001 222.901 52.2731 216.796 52.2731C210.691 52.2731 205.741 56.8001 205.741 62.3845C205.741 67.9688 210.691 72.4959 216.796 72.4959Z" fill="#F1F1F1"/>
<path fill-rule="evenodd" clip-rule="evenodd" d="M216.796 80.7687C227.897 80.7687 236.896 72.5378 236.896 62.3844C236.896 52.231 227.897 44 216.796 44C205.696 44 196.697 52.231 196.697 62.3844C196.697 72.5378 205.696 80.7687 216.796 80.7687ZM216.796 72.4959C222.901 72.4959 227.851 67.9688 227.851 62.3845C227.851 56.8001 222.901 52.2731 216.796 52.2731C210.691 52.2731 205.741 56.8001 205.741 62.3845C205.741 67.9688 210.691 72.4959 216.796 72.4959Z" fill="#F1F1F1"/>
<path fill-rule="evenodd" clip-rule="evenodd" d="M235.311 48.5488L198.025 3.28943L181.817 16.6423L212.222 53.549C213.577 52.9237 215.094 52.5738 216.695 52.5738C222.452 52.5738 227.12 57.1008 227.12 62.6852C227.12 67.505 223.643 71.5371 218.989 72.5509V185.056C218.989 190.184 214.833 194.34 209.705 194.34C204.578 194.34 200.421 190.184 200.421 185.056V130.62C200.421 113.776 186.766 100.12 169.921 100.12H153.67V121.12H169.921C175.168 121.12 179.421 125.374 179.421 130.62V185.056C179.421 201.782 192.98 215.34 209.705 215.34C226.431 215.34 239.989 201.782 239.989 185.056V61.5837C239.989 56.8277 238.335 52.2196 235.311 48.5488Z" fill="#F1F1F1"/>
</svg>
